<svg width="33" height="33" viewBox="0 0 33 33" fill="none" xmlns="http://www.w3.org/2000/svg">
<rect width="33" height="33" rx="4" fill="black"/>
<path d="M16.501 4C23.4043 4.00043 29.001 9.59758 29.001 16.501C29.0006 23.404 23.404 29.0006 16.501 29.001C9.59758 29.001 4.00043 23.4043 4 16.501C4 9.59731 9.59731 4 16.501 4ZM7.91309 22.8271C9.8556 25.4591 12.9787 27.167 16.501 27.167C20.0228 27.1667 23.1447 25.4587 25.0869 22.8271H7.91309ZM20.917 20.9932H24.9238L20.917 14.2246V20.9932ZM8.07715 20.9932H12V14.3662L8.07715 20.9932ZM16.458 14.583C14.8704 14.5832 13.5832 15.8704 13.583 17.458C13.583 19.0457 14.8703 20.3328 16.458 20.333C18.0458 20.333 19.333 19.0458 19.333 17.458C19.3328 15.8703 18.0457 14.583 16.458 14.583ZM14.8447 5.96191C9.73999 6.75759 5.83398 11.1731 5.83398 16.501C5.83408 17.7706 6.0568 18.9879 6.46387 20.1172L14.8447 5.96191ZM26.5361 20.1172C26.9432 18.9879 27.1669 17.7706 27.167 16.501C27.167 11.1725 23.2598 6.75684 18.1543 5.96191L26.5361 20.1172ZM12.8086 13H20.1914L16.5 6.76465L12.8086 13Z" fill="white"/>
</svg>
